<svg width="50" height="50" viewBox="0 0 50 50" fill="none" xmlns="http://www.w3.org/2000/svg">
<path d="M25 46.875C37.0812 46.875 46.875 37.0812 46.875 25C46.875 12.9188 37.0812 3.125 25 3.125C12.9188 3.125 3.125 12.9188 3.125 25C3.125 37.0812 12.9188 46.875 25 46.875Z" fill="#1A1B1D"/>
<path d="M29.5 18.25V17.125H28.375V18.25H21.625V17.125H20.5V18.25H17.125V32.875H32.875V18.25H29.5ZM31.75 31.75H18.25V22.75H31.75V31.75ZM31.75 21.625H18.25V19.375H20.5V20.5H21.625V19.375H28.375V20.5H29.5V19.375H31.75V21.625Z" fill="white"/>
<path d="M19.375 23.875V29.5H30.625V23.875H19.375ZM20.5 25H22.75V26.125H20.5V25ZM20.5 28.375V27.25H22.75V28.375H20.5ZM26.125 28.375H23.875V27.25H26.125V28.375ZM26.125 26.125H23.875V25H26.125V26.125ZM29.5 28.375H27.25V27.25H29.5V28.375ZM29.5 26.125H27.25V25H29.5V26.125Z" fill="white"/>
<circle cx="39.5" cy="8.5" r="3.5" fill="#EF785A"/>
</svg>
